<?xml version="1.0" encoding="UTF-8" standalone="no"?>
<svg
   xmlns:dc="http://purl.org/dc/elements/1.1/"
   xmlns:cc="http://creativecommons.org/ns#"
   xmlns:rdf="http://www.w3.org/1999/02/22-rdf-syntax-ns#"
   xmlns:svg="http://www.w3.org/2000/svg"
   xmlns="http://www.w3.org/2000/svg"
   xmlns:xlink="http://www.w3.org/1999/xlink"
   xmlns:sodipodi="http://sodipodi.sourceforge.net/DTD/sodipodi-0.dtd"
   xmlns:inkscape="http://www.inkscape.org/namespaces/inkscape"
   inkscape:version="0.92.2 2405546, 2018-03-11"
   sodipodi:docname="icon.svg"
   width="80"
   height="80"
   viewBox="0 0 21.166666 21.166669"
   version="1.1"
   id="svg1396">
  <sodipodi:namedview
     inkscape:current-layer="layer1"
     inkscape:window-maximized="1"
     inkscape:window-y="27"
     inkscape:window-x="0"
     inkscape:cy="20.450333"
     inkscape:cx="87.445337"
     inkscape:zoom="5.6568543"
     showgrid="false"
     id="namedview2605"
     inkscape:window-height="1016"
     inkscape:window-width="1920"
     inkscape:pageshadow="2"
     inkscape:pageopacity="1"
     guidetolerance="10"
     gridtolerance="10"
     objecttolerance="10"
     borderopacity="1"
     bordercolor="#666666"
     pagecolor="#5599ff" />
  <defs
     id="defs1390">
    <linearGradient
       y2="138.25"
       x2="1058.3334"
       y1="402.83334"
       x1="555.625"
       gradientTransform="translate(-945.25425,5251.9841)"
       gradientUnits="userSpaceOnUse"
       id="linearGradient9054"
       xlink:href="#linearGradient964" />
    <linearGradient
       id="linearGradient964">
      <stop
         id="stop960"
         offset="0"
         style="stop-color:#f2f2f2;stop-opacity:1;" />
      <stop
         id="stop962"
         offset="1"
         style="stop-color:#f2f2f2;stop-opacity:1" />
    </linearGradient>
    <clipPath
       clipPathUnits="userSpaceOnUse"
       id="clipPath1033">
      <g
         inkscape:label="Clip"
         id="use1035">
        <path
           id="path1040"
           d="m 15.09411,287.6622 a 0.60731533,0.60731533 0 0 0 -0.60731,0.6073 0.60731533,0.60731533 0 0 0 0.12268,0.365 l -2.36369,3.3092 a 0.60731533,0.60731533 0 0 0 -0.18825,-0.03 0.60731533,0.60731533 0 0 0 -0.28063,0.069 L 9.5591,289.7649 a 0.60731533,0.60731533 0 0 0 0.0692,-0.2805 0.60731533,0.60731533 0 0 0 -0.60731,-0.6073 0.60731533,0.60731533 0 0 0 -0.60732,0.6073 0.60731533,0.60731533 0 0 0 0.12565,0.3692 l -2.32916,3.3187 a 0.60731533,0.60731533 0 0 0 -0.22575,-0.044 0.60731533,0.60731533 0 0 0 -0.60731,0.6073 0.60731533,0.60731533 0 0 0 0.60731,0.6073 0.60731533,0.60731533 0 0 0 0.60732,-0.6073 0.60731533,0.60731533 0 0 0 -0.0989,-0.3318 l 2.34458,-3.3407 a 0.60731533,0.60731533 0 0 0 0.18357,0.029 0.60731533,0.60731533 0 0 0 0.28061,-0.069 l 2.21783,2.2178 a 0.60731533,0.60731533 0 0 0 -0.0692,0.2805 0.60731533,0.60731533 0 0 0 0.60732,0.6073 0.60731533,0.60731533 0 0 0 0.60731,-0.6073 0.60731533,0.60731533 0 0 0 -0.12267,-0.3651 l 2.3637,-3.3091 a 0.60731533,0.60731533 0 0 0 0.18823,0.03 0.60731533,0.60731533 0 0 0 0.60732,-0.6073 0.60731533,0.60731533 0 0 0 -0.60732,-0.6073 z"
           style="color:#000000;clip-rule:nonzero;display:inline;overflow:visible;visibility:visible;opacity:1;isolation:auto;mix-blend-mode:normal;color-interpolation:sRGB;color-interpolation-filters:linearRGB;solid-color:#000000;solid-opacity:1;fill:#ffffff;fill-opacity:1;fill-rule:nonzero;stroke:none;stroke-width:0.01214631;stroke-linecap:round;stroke-linejoin:round;stroke-miterlimit:4;stroke-dasharray:none;stroke-dashoffset:0;stroke-opacity:1;color-rendering:auto;image-rendering:auto;shape-rendering:auto;text-rendering:auto;enable-background:accumulate"
           inkscape:connector-curvature="0" />
        <path
           style="opacity:1;fill:#000000;fill-opacity:0.38823529;fill-rule:evenodd;stroke:none;stroke-width:0.01107022px;stroke-linecap:butt;stroke-linejoin:miter;stroke-opacity:1"
           d="m 15.44864,287.7764 -6.7e-4,4e-4 a 0.60731533,0.60731533 0 0 1 2.1e-4,0 0.60731533,0.60731533 0 0 1 0.0462,0.037 0.60731529,0.60731529 0 0 1 0.002,0 0.60731533,0.60731533 0 0 1 0.0406,0.039 0.60731529,0.60731529 0 0 1 0.004,0 0.60731533,0.60731533 0 0 1 0.0346,0.041 0.60731529,0.60731529 0 0 1 0.005,0.01 0.60731533,0.60731533 0 0 1 0.0285,0.042 0.60731529,0.60731529 0 0 1 0.006,0.01 0.60731533,0.60731533 0 0 1 0.0228,0.042 0.60731529,0.60731529 0 0 1 0.006,0.013 0.60731533,0.60731533 0 0 1 0.0172,0.041 0.60731529,0.60731529 0 0 1 0.006,0.017 0.60731533,0.60731533 0 0 1 0.0122,0.04 0.60731529,0.60731529 0 0 1 0.005,0.02 0.60731533,0.60731533 0 0 1 0.008,0.037 0.60731529,0.60731529 0 0 1 0.004,0.024 0.60731533,0.60731533 0 0 1 0.003,0.034 0.60731529,0.60731529 0 0 1 0.002,0.043 0.60731533,0.60731533 0 0 1 -0.003,0.052 0.60731529,0.60731529 0 0 1 -0.004,0.03 0.60731533,0.60731533 0 0 1 -0.005,0.031 0.60731529,0.60731529 0 0 1 -0.006,0.029 0.60731533,0.60731533 0 0 1 -0.008,0.03 0.60731529,0.60731529 0 0 1 -0.009,0.028 0.60731533,0.60731533 0 0 1 -0.0109,0.03 0.60731529,0.60731529 0 0 1 -0.0119,0.027 0.60731533,0.60731533 0 0 1 -0.0137,0.028 0.60731529,0.60731529 0 0 1 -0.0144,0.025 0.60731533,0.60731533 0 0 1 -0.0165,0.027 0.60731529,0.60731529 0 0 1 -0.0172,0.024 0.60731533,0.60731533 0 0 1 -0.0187,0.025 0.60731529,0.60731529 0 0 1 -0.0197,0.022 0.60731533,0.60731533 0 0 1 -0.0211,0.023 0.60731529,0.60731529 0 0 1 -0.0214,0.02 0.60731533,0.60731533 0 0 1 -0.0238,0.021 0.60731529,0.60731529 0 0 1 -0.023,0.017 0.60731533,0.60731533 0 0 1 -0.0258,0.019 0.60731529,0.60731529 0 0 1 -0.0246,0.015 0.60731533,0.60731533 0 0 1 -0.0277,0.016 0.60731529,0.60731529 0 0 1 -0.0258,0.012 0.60731533,0.60731533 0 0 1 -0.0293,0.013 0.60731529,0.60731529 0 0 1 -0.0267,0.01 0.60731533,0.60731533 0 0 1 -0.0307,0.01 0.60731529,0.60731529 0 0 1 -0.0277,0.01 0.60731533,0.60731533 0 0 1 -0.0312,0.01 0.60731529,0.60731529 0 0 1 -0.0286,0 0.60731533,0.60731533 0 0 1 -0.0314,0 0.60731529,0.60731529 0 0 1 -0.05,0 0.60731533,0.60731533 0 0 1 -0.001,0 0.60731533,0.60731533 0 0 1 -0.0363,0 0.60731529,0.60731529 0 0 1 -0.0287,0 0.60731533,0.60731533 0 0 1 -0.0309,0 0.60731529,0.60731529 0 0 1 -0.0292,0 0.60731533,0.60731533 0 0 1 -0.0298,-0.01 0.60731529,0.60731529 0 0 1 -0.0333,-0.01 l -2.3637,3.3091 a 0.60731533,0.60731533 0 0 1 2.5e-4,4e-4 0.60731533,0.60731533 0 0 1 0.0244,0.036 0.60731529,0.60731529 0 0 1 0.0161,0.026 0.60731533,0.60731533 0 0 1 0.0143,0.026 0.60731529,0.60731529 0 0 1 0.0133,0.027 0.60731533,0.60731533 0 0 1 0.0118,0.028 0.60731529,0.60731529 0 0 1 0.0103,0.028 0.60731533,0.60731533 0 0 1 0.009,0.029 0.60731529,0.60731529 0 0 1 0.008,0.03 0.60731533,0.60731533 0 0 1 0.006,0.029 0.60731529,0.60731529 0 0 1 0.005,0.03 0.60731533,0.60731533 0 0 1 0.003,0.03 0.60731529,0.60731529 0 0 1 0.002,0.044 0.60731533,0.60731533 0 0 1 -0.003,0.052 0.60731529,0.60731529 0 0 1 -0.004,0.03 0.60731533,0.60731533 0 0 1 -0.005,0.03 0.60731529,0.60731529 0 0 1 -0.007,0.029 0.60731533,0.60731533 0 0 1 -0.008,0.03 0.60731529,0.60731529 0 0 1 -0.01,0.029 0.60731533,0.60731533 0 0 1 -0.0104,0.029 0.60731529,0.60731529 0 0 1 -0.0123,0.028 0.60731533,0.60731533 0 0 1 -0.0132,0.028 0.60731529,0.60731529 0 0 1 -0.0149,0.026 0.60731533,0.60731533 0 0 1 -0.0161,0.026 0.60731529,0.60731529 0 0 1 -0.0173,0.024 0.60731533,0.60731533 0 0 1 -0.0187,0.025 0.60731529,0.60731529 0 0 1 -0.0194,0.022 0.60731533,0.60731533 0 0 1 -0.0215,0.023 0.60731529,0.60731529 0 0 1 -0.021,0.02 0.60731533,0.60731533 0 0 1 -0.0241,0.021 0.60731529,0.60731529 0 0 1 -0.0228,0.017 0.60731533,0.60731533 0 0 1 -0.0259,0.019 0.60731529,0.60731529 0 0 1 -0.0251,0.015 0.60731533,0.60731533 0 0 1 -0.0269,0.016 0.60731529,0.60731529 0 0 1 -0.027,0.013 0.60731533,0.60731533 0 0 1 -0.028,0.012 0.60731529,0.60731529 0 0 1 -0.0281,0.01 0.60731533,0.60731533 0 0 1 -0.0293,0.01 0.60731529,0.60731529 0 0 1 -0.0285,0.01 0.60731533,0.60731533 0 0 1 -0.0306,0.01 0.60731529,0.60731529 0 0 1 -0.029,0 0.60731533,0.60731533 0 0 1 -0.0311,0 0.60731529,0.60731529 0 0 1 -0.05,0 0.60731533,0.60731533 0 0 1 -10e-4,0 0.60731533,0.60731533 0 0 1 -0.0521,0 0.60731529,0.60731529 0 0 1 -0.029,0 0.60731533,0.60731533 0 0 1 -0.031,0 0.60731529,0.60731529 0 0 1 -0.0287,-0.01 0.60731533,0.60731533 0 0 1 -0.0304,-0.01 0.60731529,0.60731529 0 0 1 -0.0278,-0.01 0.60731533,0.60731533 0 0 1 -0.0294,-0.011 0.60731529,0.60731529 0 0 1 -0.0269,-0.012 0.60731533,0.60731533 0 0 1 -0.0283,-0.014 0.60731529,0.60731529 0 0 1 -0.0251,-0.014 0.60731533,0.60731533 0 0 1 -0.027,-0.016 0.60731529,0.60731529 0 0 1 -0.0239,-0.017 0.60731533,0.60731533 0 0 1 -0.0248,-0.019 0.60731529,0.60731529 0 0 1 -0.0222,-0.019 0.60731533,0.60731533 0 0 1 -0.0228,-0.021 0.60731529,0.60731529 0 0 1 -0.0203,-0.022 0.60731533,0.60731533 0 0 1 -0.0203,-0.023 0.60731529,0.60731529 0 0 1 -0.0182,-0.024 0.60731533,0.60731533 0 0 1 -0.0178,-0.025 0.60731529,0.60731529 0 0 1 -0.0157,-0.026 0.60731533,0.60731533 0 0 1 -0.0151,-0.026 0.60731529,0.60731529 0 0 1 -0.0133,-0.028 0.60731533,0.60731533 0 0 1 -0.0122,-0.027 0.60731529,0.60731529 0 0 1 -0.0105,-0.029 0.60731533,0.60731533 0 0 1 -0.01,-0.029 0.60731529,0.60731529 0 0 1 -0.007,-0.029 0.60731533,0.60731533 0 0 1 -0.007,-0.03 0.60731529,0.60731529 0 0 1 -0.005,-0.03 0.60731533,0.60731533 0 0 1 -0.004,-0.03 0.60731529,0.60731529 0 0 1 -0.003,-0.052 0.60731533,0.60731533 0 0 1 0.003,-0.054 0.60731529,0.60731529 0 0 1 0.004,-0.03 0.60731533,0.60731533 0 0 1 0.005,-0.03 0.60731529,0.60731529 0 0 1 0.007,-0.029 0.60731533,0.60731533 0 0 1 0.008,-0.029 0.60731529,0.60731529 0 0 1 0.01,-0.029 0.60731533,0.60731533 0 0 1 0.0103,-0.028 0.60731529,0.60731529 0 0 1 0.023,-0.05 v 0 l -1.03729,-1.0373 h -3e-5 l -3.91446,2.7008 a 0.60731533,0.60731533 0 0 1 -2.5e-4,6e-4 0.60731533,0.60731533 0 0 1 -0.0194,0.057 0.60731529,0.60731529 0 0 1 -4e-5,0 0.60731533,0.60731533 0 0 1 -5.6e-4,0 0.60731533,0.60731533 0 0 1 -0.0247,0.054 0.60731529,0.60731529 0 0 1 -0.001,0 0.60731533,0.60731533 0 0 1 -0.0297,0.05 0.60731529,0.60731529 0 0 1 -0.002,0 0.60731533,0.60731533 0 0 1 -0.0337,0.046 0.60731529,0.60731529 0 0 1 -0.005,0.01 0.60731533,0.60731533 0 0 1 -0.0354,0.039 0.60731529,0.60731529 0 0 1 -0.007,0.01 0.60731533,0.60731533 0 0 1 -0.038,0.035 0.60731529,0.60731529 0 0 1 -0.008,0.01 0.60731533,0.60731533 0 0 1 -0.0404,0.03 0.60731529,0.60731529 0 0 1 -0.0103,0.01 0.60731533,0.60731533 0 0 1 -0.0415,0.025 0.60731529,0.60731529 0 0 1 -0.0133,0.01 0.60731533,0.60731533 0 0 1 -0.0413,0.019 0.60731529,0.60731529 0 0 1 -0.0157,0.01 0.60731533,0.60731533 0 0 1 -0.0413,0.015 0.60731529,0.60731529 0 0 1 -0.019,0 0.60731533,0.60731533 0 0 1 -0.0395,0.01 0.60731529,0.60731529 0 0 1 -0.0225,0 0.60731533,0.60731533 0 0 1 -0.0375,0.01 0.60731529,0.60731529 0 0 1 -0.0518,0 0.60731533,0.60731533 0 0 1 -0.005,4e-4 0.60731533,0.60731533 0 0 1 -0.0497,0 h -2e-5 l -3.8e-4,4e-4 L 8.57135,297 h 12.59258 v -5.9027 z m -4.96655,3.4265 -1.18051,-1.1805 a 0.60731533,0.60731533 0 0 1 -0.28063,0.069 0.60731533,0.60731533 0 0 1 -0.18356,-0.029 l -2.34458,3.3407 a 0.60731533,0.60731533 0 0 1 0.0989,0.3318 0.60731533,0.60731533 0 0 1 -0.024,0.1683 z m -4.54772,3.1373 -2e-5,4e-4 2.9e-4,-4e-4 a 0.60731533,0.60731533 0 0 1 -2.9e-4,0 z"
           id="path1042"
           inkscape:connector-curvature="0" />
      </g>
    </clipPath>
    <clipPath
       clipPathUnits="userSpaceOnUse"
       id="clipPath1076">
      <g
         inkscape:label="Clip"
         id="use1078">
        <path
           inkscape:connector-curvature="0"
           style="color:#000000;clip-rule:nonzero;display:inline;overflow:visible;visibility:visible;opacity:1;isolation:auto;mix-blend-mode:normal;color-interpolation:sRGB;color-interpolation-filters:linearRGB;solid-color:#000000;solid-opacity:1;fill:#ffffff;fill-opacity:1;fill-rule:nonzero;stroke:none;stroke-width:0.01214631;stroke-linecap:round;stroke-linejoin:round;stroke-miterlimit:4;stroke-dasharray:none;stroke-dashoffset:0;stroke-opacity:1;color-rendering:auto;image-rendering:auto;shape-rendering:auto;text-rendering:auto;enable-background:accumulate"
           d="m 15.052762,286.34307 a 0.60731533,0.60731533 0 0 0 -0.60731,0.6073 0.60731533,0.60731533 0 0 0 0.12268,0.365 l -2.36369,3.3092 a 0.60731533,0.60731533 0 0 0 -0.18825,-0.03 0.60731533,0.60731533 0 0 0 -0.28063,0.069 l -2.2178097,-2.2178 a 0.60731533,0.60731533 0 0 0 0.0692,-0.2805 0.60731533,0.60731533 0 0 0 -0.60731,-0.6073 0.60731533,0.60731533 0 0 0 -0.60732,0.6073 0.60731533,0.60731533 0 0 0 0.12565,0.3692 l -2.32916,3.3187 a 0.60731533,0.60731533 0 0 0 -0.22575,-0.044 0.60731533,0.60731533 0 0 0 -0.60731,0.6073 0.60731533,0.60731533 0 0 0 0.60731,0.6073 0.60731533,0.60731533 0 0 0 0.60732,-0.6073 0.60731533,0.60731533 0 0 0 -0.0989,-0.3318 l 2.34458,-3.3407 a 0.60731533,0.60731533 0 0 0 0.18357,0.029 0.60731533,0.60731533 0 0 0 0.28061,-0.069 l 2.2178297,2.2178 a 0.60731533,0.60731533 0 0 0 -0.0692,0.2805 0.60731533,0.60731533 0 0 0 0.60732,0.6073 0.60731533,0.60731533 0 0 0 0.60731,-0.6073 0.60731533,0.60731533 0 0 0 -0.12267,-0.3651 l 2.3637,-3.3091 a 0.60731533,0.60731533 0 0 0 0.18823,0.03 0.60731533,0.60731533 0 0 0 0.60732,-0.6073 0.60731533,0.60731533 0 0 0 -0.60732,-0.6073 z"
           id="path1084" />
        <path
           inkscape:connector-curvature="0"
           id="path1086"
           d="m 15.407292,286.45727 -6.7e-4,4e-4 a 0.60731533,0.60731533 0 0 1 2.1e-4,0 0.60731533,0.60731533 0 0 1 0.0462,0.037 0.60731529,0.60731529 0 0 1 0.002,0 0.60731533,0.60731533 0 0 1 0.0406,0.039 0.60731529,0.60731529 0 0 1 0.004,0 0.60731533,0.60731533 0 0 1 0.0346,0.041 0.60731529,0.60731529 0 0 1 0.005,0.01 0.60731533,0.60731533 0 0 1 0.0285,0.042 0.60731529,0.60731529 0 0 1 0.006,0.01 0.60731533,0.60731533 0 0 1 0.0228,0.042 0.60731529,0.60731529 0 0 1 0.006,0.013 0.60731533,0.60731533 0 0 1 0.0172,0.041 0.60731529,0.60731529 0 0 1 0.006,0.017 0.60731533,0.60731533 0 0 1 0.0122,0.04 0.60731529,0.60731529 0 0 1 0.005,0.02 0.60731533,0.60731533 0 0 1 0.008,0.037 0.60731529,0.60731529 0 0 1 0.004,0.024 0.60731533,0.60731533 0 0 1 0.003,0.034 0.60731529,0.60731529 0 0 1 0.002,0.043 0.60731533,0.60731533 0 0 1 -0.003,0.052 0.60731529,0.60731529 0 0 1 -0.004,0.03 0.60731533,0.60731533 0 0 1 -0.005,0.031 0.60731529,0.60731529 0 0 1 -0.006,0.029 0.60731533,0.60731533 0 0 1 -0.008,0.03 0.60731529,0.60731529 0 0 1 -0.009,0.028 0.60731533,0.60731533 0 0 1 -0.0109,0.03 0.60731529,0.60731529 0 0 1 -0.0119,0.027 0.60731533,0.60731533 0 0 1 -0.0137,0.028 0.60731529,0.60731529 0 0 1 -0.0144,0.025 0.60731533,0.60731533 0 0 1 -0.0165,0.027 0.60731529,0.60731529 0 0 1 -0.0172,0.024 0.60731533,0.60731533 0 0 1 -0.0187,0.025 0.60731529,0.60731529 0 0 1 -0.0197,0.022 0.60731533,0.60731533 0 0 1 -0.0211,0.023 0.60731529,0.60731529 0 0 1 -0.0214,0.02 0.60731533,0.60731533 0 0 1 -0.0238,0.021 0.60731529,0.60731529 0 0 1 -0.023,0.017 0.60731533,0.60731533 0 0 1 -0.0258,0.019 0.60731529,0.60731529 0 0 1 -0.0246,0.015 0.60731533,0.60731533 0 0 1 -0.0277,0.016 0.60731529,0.60731529 0 0 1 -0.0258,0.012 0.60731533,0.60731533 0 0 1 -0.0293,0.013 0.60731529,0.60731529 0 0 1 -0.0267,0.01 0.60731533,0.60731533 0 0 1 -0.0307,0.01 0.60731529,0.60731529 0 0 1 -0.0277,0.01 0.60731533,0.60731533 0 0 1 -0.0312,0.01 0.60731529,0.60731529 0 0 1 -0.0286,0 0.60731533,0.60731533 0 0 1 -0.0314,0 0.60731529,0.60731529 0 0 1 -0.05,0 0.60731533,0.60731533 0 0 1 -10e-4,0 0.60731533,0.60731533 0 0 1 -0.0363,0 0.60731529,0.60731529 0 0 1 -0.0287,0 0.60731533,0.60731533 0 0 1 -0.0309,0 0.60731529,0.60731529 0 0 1 -0.0292,0 0.60731533,0.60731533 0 0 1 -0.0298,-0.01 0.60731529,0.60731529 0 0 1 -0.0333,-0.01 l -2.3637,3.3091 a 0.60731533,0.60731533 0 0 1 2.5e-4,4e-4 0.60731533,0.60731533 0 0 1 0.0244,0.036 0.60731529,0.60731529 0 0 1 0.0161,0.026 0.60731533,0.60731533 0 0 1 0.0143,0.026 0.60731529,0.60731529 0 0 1 0.0133,0.027 0.60731533,0.60731533 0 0 1 0.0118,0.028 0.60731529,0.60731529 0 0 1 0.0103,0.028 0.60731533,0.60731533 0 0 1 0.009,0.029 0.60731529,0.60731529 0 0 1 0.008,0.03 0.60731533,0.60731533 0 0 1 0.006,0.029 0.60731529,0.60731529 0 0 1 0.005,0.03 0.60731533,0.60731533 0 0 1 0.003,0.03 0.60731529,0.60731529 0 0 1 0.002,0.044 0.60731533,0.60731533 0 0 1 -0.003,0.052 0.60731529,0.60731529 0 0 1 -0.004,0.03 0.60731533,0.60731533 0 0 1 -0.005,0.03 0.60731529,0.60731529 0 0 1 -0.007,0.029 0.60731533,0.60731533 0 0 1 -0.008,0.03 0.60731529,0.60731529 0 0 1 -0.01,0.029 0.60731533,0.60731533 0 0 1 -0.0104,0.029 0.60731529,0.60731529 0 0 1 -0.0123,0.028 0.60731533,0.60731533 0 0 1 -0.0132,0.028 0.60731529,0.60731529 0 0 1 -0.0149,0.026 0.60731533,0.60731533 0 0 1 -0.0161,0.026 0.60731529,0.60731529 0 0 1 -0.0173,0.024 0.60731533,0.60731533 0 0 1 -0.0187,0.025 0.60731529,0.60731529 0 0 1 -0.0194,0.022 0.60731533,0.60731533 0 0 1 -0.0215,0.023 0.60731529,0.60731529 0 0 1 -0.021,0.02 0.60731533,0.60731533 0 0 1 -0.0241,0.021 0.60731529,0.60731529 0 0 1 -0.0228,0.017 0.60731533,0.60731533 0 0 1 -0.0259,0.019 0.60731529,0.60731529 0 0 1 -0.0251,0.015 0.60731533,0.60731533 0 0 1 -0.0269,0.016 0.60731529,0.60731529 0 0 1 -0.027,0.013 0.60731533,0.60731533 0 0 1 -0.028,0.012 0.60731529,0.60731529 0 0 1 -0.0281,0.01 0.60731533,0.60731533 0 0 1 -0.0293,0.01 0.60731529,0.60731529 0 0 1 -0.0285,0.01 0.60731533,0.60731533 0 0 1 -0.0306,0.01 0.60731529,0.60731529 0 0 1 -0.029,0 0.60731533,0.60731533 0 0 1 -0.0311,0 0.60731529,0.60731529 0 0 1 -0.05,0 0.60731533,0.60731533 0 0 1 -0.001,0 0.60731533,0.60731533 0 0 1 -0.0521,0 0.60731529,0.60731529 0 0 1 -0.029,0 0.60731533,0.60731533 0 0 1 -0.031,0 0.60731529,0.60731529 0 0 1 -0.0287,-0.01 0.60731533,0.60731533 0 0 1 -0.0304,-0.01 0.60731529,0.60731529 0 0 1 -0.0278,-0.01 0.60731533,0.60731533 0 0 1 -0.0294,-0.011 0.60731529,0.60731529 0 0 1 -0.0269,-0.012 0.60731533,0.60731533 0 0 1 -0.0283,-0.014 0.60731529,0.60731529 0 0 1 -0.0251,-0.014 0.60731533,0.60731533 0 0 1 -0.027,-0.016 0.60731529,0.60731529 0 0 1 -0.0239,-0.017 0.60731533,0.60731533 0 0 1 -0.0248,-0.019 0.60731529,0.60731529 0 0 1 -0.0222,-0.019 0.60731533,0.60731533 0 0 1 -0.0228,-0.021 0.60731529,0.60731529 0 0 1 -0.0203,-0.022 0.60731533,0.60731533 0 0 1 -0.0203,-0.023 0.60731529,0.60731529 0 0 1 -0.0182,-0.024 0.60731533,0.60731533 0 0 1 -0.0178,-0.025 0.60731529,0.60731529 0 0 1 -0.0157,-0.026 0.60731533,0.60731533 0 0 1 -0.0151,-0.026 0.60731529,0.60731529 0 0 1 -0.0133,-0.028 0.60731533,0.60731533 0 0 1 -0.0122,-0.027 0.60731529,0.60731529 0 0 1 -0.0105,-0.029 0.60731533,0.60731533 0 0 1 -0.01,-0.029 0.60731529,0.60731529 0 0 1 -0.007,-0.029 0.60731533,0.60731533 0 0 1 -0.007,-0.03 0.60731529,0.60731529 0 0 1 -0.005,-0.03 0.60731533,0.60731533 0 0 1 -0.004,-0.03 0.60731529,0.60731529 0 0 1 -0.003,-0.052 0.60731533,0.60731533 0 0 1 0.003,-0.054 0.60731529,0.60731529 0 0 1 0.004,-0.03 0.60731533,0.60731533 0 0 1 0.005,-0.03 0.60731529,0.60731529 0 0 1 0.007,-0.029 0.60731533,0.60731533 0 0 1 0.008,-0.029 0.60731529,0.60731529 0 0 1 0.01,-0.029 0.60731533,0.60731533 0 0 1 0.0103,-0.028 0.60731529,0.60731529 0 0 1 0.023,-0.05 v 0 l -1.03729,-1.0373 h -3e-5 l -3.9144597,2.7008 a 0.60731533,0.60731533 0 0 1 -2.5e-4,6e-4 0.60731533,0.60731533 0 0 1 -0.0194,0.057 0.60731529,0.60731529 0 0 1 -4e-5,0 0.60731533,0.60731533 0 0 1 -5.6e-4,0 0.60731533,0.60731533 0 0 1 -0.0247,0.054 0.60731529,0.60731529 0 0 1 -10e-4,0 0.60731533,0.60731533 0 0 1 -0.0297,0.05 0.60731529,0.60731529 0 0 1 -0.002,0 0.60731533,0.60731533 0 0 1 -0.0337,0.046 0.60731529,0.60731529 0 0 1 -0.005,0.01 0.60731533,0.60731533 0 0 1 -0.0354,0.039 0.60731529,0.60731529 0 0 1 -0.007,0.01 0.60731533,0.60731533 0 0 1 -0.038,0.035 0.60731529,0.60731529 0 0 1 -0.008,0.01 0.60731533,0.60731533 0 0 1 -0.0404,0.03 0.60731529,0.60731529 0 0 1 -0.0103,0.01 0.60731533,0.60731533 0 0 1 -0.0415,0.025 0.60731529,0.60731529 0 0 1 -0.0133,0.01 0.60731533,0.60731533 0 0 1 -0.0413,0.019 0.60731529,0.60731529 0 0 1 -0.0157,0.01 0.60731533,0.60731533 0 0 1 -0.0413,0.015 0.60731529,0.60731529 0 0 1 -0.019,0 0.60731533,0.60731533 0 0 1 -0.0395,0.01 0.60731529,0.60731529 0 0 1 -0.0225,0 0.60731533,0.60731533 0 0 1 -0.0375,0.01 0.60731529,0.60731529 0 0 1 -0.0518,0 0.60731533,0.60731533 0 0 1 -0.005,4e-4 0.60731533,0.60731533 0 0 1 -0.0497,0 h -2e-5 l -3.8e-4,4e-4 2.63975,2.6398 H 21.122582 v -5.9027 z m -4.96655,3.4265 -1.1805097,-1.1805 a 0.60731533,0.60731533 0 0 1 -0.28063,0.069 0.60731533,0.60731533 0 0 1 -0.18356,-0.029 l -2.34458,3.3407 a 0.60731533,0.60731533 0 0 1 0.0989,0.3318 0.60731533,0.60731533 0 0 1 -0.024,0.1683 z m -4.5477197,3.1373 -2e-5,4e-4 2.9e-4,-4e-4 a 0.60731533,0.60731533 0 0 1 -2.9e-4,0 z"
           style="opacity:1;fill:#000000;fill-opacity:0.38823529;fill-rule:evenodd;stroke:none;stroke-width:0.01107022px;stroke-linecap:butt;stroke-linejoin:miter;stroke-opacity:1" />
        <path
           inkscape:connector-curvature="0"
           id="path1088"
           d="m 8.5300024,295.68087 2.5333546,2.53335 h 6.593137 v -2.53312 z"
           style="fill:#000000;fill-opacity:0.38823529;stroke:none;stroke-width:0.26458335px;stroke-linecap:butt;stroke-linejoin:miter;stroke-opacity:1" />
      </g>
    </clipPath>
  </defs>
  <metadata
     id="metadata1393">
    <rdf:RDF>
      <cc:Work
         rdf:about="">
        <dc:format>image/svg+xml</dc:format>
        <dc:type
           rdf:resource="http://purl.org/dc/dcmitype/StillImage" />
        <dc:title></dc:title>
      </cc:Work>
    </rdf:RDF>
  </metadata>
  <g
     transform="translate(0,-275.83322)"
     id="layer1">
    <path
       inkscape:connector-curvature="0"
       style="color:#000000;clip-rule:nonzero;display:inline;overflow:visible;visibility:visible;opacity:1;isolation:auto;mix-blend-mode:normal;color-interpolation:sRGB;color-interpolation-filters:linearRGB;solid-color:#000000;solid-opacity:1;fill:#ffffff;fill-opacity:1;fill-rule:nonzero;stroke:none;stroke-width:0.01803438;stroke-linecap:round;stroke-linejoin:round;stroke-miterlimit:4;stroke-dasharray:none;stroke-dashoffset:0;stroke-opacity:1;color-rendering:auto;image-rendering:auto;shape-rendering:auto;text-rendering:auto;enable-background:accumulate"
       d="m 17.346196,281.45689 a 0.90171897,0.90171897 0 0 0 -0.901711,0.9017 0.90171897,0.90171897 0 0 0 0.182151,0.54194 l -3.509518,4.91337 a 0.90171897,0.90171897 0 0 0 -0.279507,-0.0445 0.90171897,0.90171897 0 0 0 -0.416669,0.10245 l -3.2929203,-3.29291 a 0.90171897,0.90171897 0 0 0 0.1027456,-0.41647 0.90171897,0.90171897 0 0 0 -0.901711,-0.9017 0.90171897,0.90171897 0 0 0 -0.9017259,0.9017 0.90171897,0.90171897 0 0 0 0.1865603,0.54817 l -3.4582491,4.92748 a 0.90171897,0.90171897 0 0 0 -0.3351852,-0.0653 0.90171897,0.90171897 0 0 0 -0.901711,0.9017 0.90171897,0.90171897 0 0 0 0.901711,0.9017 0.90171897,0.90171897 0 0 0 0.9017259,-0.9017 0.90171897,0.90171897 0 0 0 -0.146843,-0.49264 l 3.4811443,-4.96015 a 0.90171897,0.90171897 0 0 0 0.2725578,0.0431 0.90171897,0.90171897 0 0 0 0.4166392,-0.10245 l 3.2929504,3.29291 a 0.90171897,0.90171897 0 0 0 -0.102746,0.41647 0.90171897,0.90171897 0 0 0 0.901726,0.9017 0.90171897,0.90171897 0 0 0 0.901711,-0.9017 0.90171897,0.90171897 0 0 0 -0.182136,-0.54209 l 3.509533,-4.91322 a 0.90171897,0.90171897 0 0 0 0.279477,0.0445 0.90171897,0.90171897 0 0 0 0.901726,-0.9017 0.90171897,0.90171897 0 0 0 -0.901726,-0.90169 z"
       id="path9056" />
    <path
       inkscape:connector-curvature="0"
       id="path9071"
       d="m 17.873512,281.62114 -9.95e-4,6e-4 h 3.12e-4 c 0.02374,0.0172 0.04664,0.0355 0.0686,0.0549 h 0.003 c 0.02098,0.0184 0.04109,0.0377 0.06028,0.0579 0.002,-10e-6 0.0039,-10e-6 0.0059,0 0.01801,0.0195 0.03515,0.0399 0.05137,0.0609 0.0025,0.005 0.005,0.01 0.0074,0.0149 0.01497,0.0202 0.02909,0.041 0.04232,0.0624 0.003,0.005 0.006,0.01 0.0089,0.0148 0.0121,0.0204 0.02339,0.0412 0.03385,0.0624 0.003,0.006 0.006,0.0128 0.0089,0.0193 0.0093,0.02 0.01777,0.0403 0.02554,0.0609 0.0031,0.008 0.0061,0.0168 0.0089,0.0252 0.0067,0.0196 0.01276,0.0394 0.01811,0.0594 0.0026,0.01 0.0051,0.0198 0.0074,0.0297 0.0045,0.0182 0.0085,0.0365 0.01188,0.0549 0.0022,0.0118 0.0042,0.0237 0.0059,0.0356 0.002,0.0168 0.0035,0.0336 0.0045,0.0505 0.0018,0.0212 0.0028,0.0425 0.003,0.0638 -3.95e-4,0.0258 -0.0019,0.0515 -0.0045,0.0772 -0.0016,0.0149 -0.0036,0.0297 -0.0059,0.0445 -0.0021,0.0154 -0.0045,0.0307 -0.0074,0.046 -0.0026,0.0144 -0.0056,0.0288 -0.0089,0.0431 -0.0036,0.0149 -0.0075,0.0298 -0.01188,0.0445 -0.0041,0.014 -0.0086,0.0278 -0.01336,0.0416 -0.005,0.015 -0.0104,0.0299 -0.01618,0.0446 -0.0056,0.0135 -0.01146,0.0269 -0.01767,0.0401 -0.0064,0.014 -0.01321,0.0279 -0.02034,0.0416 -0.0068,0.0125 -0.01396,0.0249 -0.02138,0.0371 -0.0078,0.0136 -0.01599,0.0269 -0.0245,0.0401 -0.0082,0.0121 -0.01674,0.0239 -0.02554,0.0356 -0.0089,0.0126 -0.01819,0.025 -0.02776,0.0371 -0.0095,0.0111 -0.01924,0.022 -0.02925,0.0327 -0.01015,0.0117 -0.0206,0.0231 -0.03133,0.0342 -0.01035,0.0102 -0.02094,0.0201 -0.03177,0.0297 -0.01151,0.0107 -0.02329,0.0211 -0.03534,0.0312 -0.01118,0.009 -0.02257,0.0171 -0.03415,0.0252 -0.01252,0.01 -0.02529,0.0191 -0.03831,0.0282 -0.012,0.008 -0.02418,0.0152 -0.03653,0.0223 -0.0135,0.008 -0.02721,0.0162 -0.04113,0.0238 -0.01263,0.006 -0.0254,0.0122 -0.03831,0.0178 -0.01433,0.007 -0.02883,0.0132 -0.0435,0.0193 -0.0131,0.005 -0.02631,0.0102 -0.03964,0.0148 -0.01506,0.005 -0.03026,0.0103 -0.04558,0.0149 -0.01359,0.005 -0.0273,0.0103 -0.04113,0.0149 -0.0153,0.005 -0.03075,0.0103 -0.04632,0.0148 -0.01415,3.3e-4 -0.02831,3.3e-4 -0.04246,0 -0.01554,4e-4 -0.03108,4e-4 -0.04662,0 -0.02474,10e-4 -0.0495,10e-4 -0.07424,0 h -0.0015 c -0.01796,5.4e-4 -0.03594,5.4e-4 -0.0539,0 -0.0142,3.4e-4 -0.02841,3.4e-4 -0.04261,0 -0.01529,3.9e-4 -0.03059,3.9e-4 -0.04588,0 -0.01445,3.5e-4 -0.02891,3.5e-4 -0.04336,0 -0.01487,-0.005 -0.02963,-0.009 -0.04425,-0.0148 -0.01662,-0.004 -0.03311,-0.009 -0.04944,-0.0149 l -3.509533,4.91323 3.72e-4,5.9e-4 c 0.01271,0.0174 0.0248,0.0352 0.03623,0.0535 0.0083,0.0127 0.01626,0.0255 0.0239,0.0386 0.0074,0.0127 0.01447,0.0256 0.02123,0.0386 0.0069,0.0132 0.0135,0.0266 0.01975,0.0401 0.0062,0.0137 0.01203,0.0276 0.01752,0.0416 0.0054,0.0137 0.01054,0.0276 0.01529,0.0416 0.0048,0.0143 0.0093,0.0286 0.01336,0.0431 0.0043,0.0147 0.0083,0.0296 0.01188,0.0445 0.0033,0.0143 0.0063,0.0287 0.0089,0.0431 0.0028,0.0148 0.0053,0.0296 0.0074,0.0445 0.0019,0.0148 0.0034,0.0296 0.0045,0.0445 0.0018,0.0217 0.0028,0.0435 0.003,0.0653 -3.95e-4,0.0258 -0.0019,0.0515 -0.0045,0.0772 -0.0016,0.0149 -0.0036,0.0297 -0.0059,0.0445 -0.0021,0.0149 -0.0046,0.0298 -0.0074,0.0446 -0.0031,0.0144 -0.0066,0.0288 -0.01039,0.043 -0.0036,0.0149 -0.0075,0.0298 -0.01188,0.0445 -0.0046,0.0145 -0.0095,0.0289 -0.01485,0.0431 -0.0048,0.0145 -0.0099,0.0289 -0.01544,0.0431 -0.0057,0.014 -0.01182,0.0279 -0.01826,0.0416 -0.0062,0.014 -0.01271,0.0279 -0.0196,0.0416 -0.0071,0.0131 -0.01443,0.0259 -0.02212,0.0386 -0.0076,0.0131 -0.01561,0.0259 -0.0239,0.0386 -0.0083,0.0121 -0.01684,0.0239 -0.02569,0.0356 -0.0089,0.0126 -0.0182,0.025 -0.02777,0.0371 -0.0093,0.0111 -0.01894,0.022 -0.0288,0.0327 -0.01034,0.0116 -0.02099,0.023 -0.03192,0.0341 -0.01015,0.0102 -0.02055,0.0201 -0.03118,0.0297 -0.01165,0.0107 -0.02358,0.0211 -0.03578,0.0312 -0.01108,0.009 -0.02237,0.0171 -0.03385,0.0252 -0.01257,0.01 -0.02539,0.0191 -0.03845,0.0282 -0.01224,0.008 -0.02467,0.0152 -0.03727,0.0223 -0.01311,0.008 -0.02642,0.0162 -0.03994,0.0238 -0.0132,0.007 -0.02657,0.0132 -0.04009,0.0193 -0.01371,0.006 -0.02757,0.0122 -0.04157,0.0178 -0.01378,0.005 -0.02769,0.0102 -0.04172,0.0148 -0.01437,0.005 -0.02888,0.0102 -0.0435,0.0148 -0.01398,0.005 -0.02809,0.0103 -0.04232,0.0149 -0.01501,0.005 -0.03016,0.0103 -0.04543,0.0148 -0.01435,3.4e-4 -0.02871,3.4e-4 -0.04306,0 -0.01539,3.9e-4 -0.03079,3.9e-4 -0.04618,0 -0.02474,10e-4 -0.0495,10e-4 -0.07424,0 h -0.0015 c -0.02578,10e-4 -0.05159,10e-4 -0.07736,0 -0.01435,3.4e-4 -0.02871,3.4e-4 -0.04306,0 -0.01534,3.9e-4 -0.03069,3.9e-4 -0.04603,0 -0.01432,-0.005 -0.02853,-0.01 -0.04261,-0.0148 -0.01517,-0.005 -0.03023,-0.01 -0.04514,-0.0149 -0.01388,-0.005 -0.02764,-0.01 -0.04128,-0.0148 -0.01469,-0.005 -0.02924,-0.0105 -0.04365,-0.0163 -0.01346,-0.006 -0.02677,-0.0115 -0.03994,-0.0178 -0.01418,-0.007 -0.0282,-0.0135 -0.04202,-0.0208 -0.01259,-0.007 -0.02501,-0.0136 -0.03727,-0.0208 -0.01357,-0.008 -0.02693,-0.0155 -0.04009,-0.0238 -0.01203,-0.008 -0.02386,-0.0165 -0.03548,-0.0252 -0.01251,-0.009 -0.02479,-0.0185 -0.03682,-0.0282 -0.01121,-0.009 -0.0222,-0.0185 -0.03296,-0.0282 -0.01155,-0.0101 -0.02283,-0.0205 -0.03385,-0.0312 -0.01031,-0.0106 -0.02036,-0.0215 -0.03014,-0.0327 -0.01033,-0.0111 -0.02038,-0.0226 -0.03014,-0.0342 -0.0093,-0.0116 -0.01831,-0.0235 -0.02702,-0.0356 -0.0091,-0.0121 -0.01793,-0.0245 -0.02643,-0.0371 -0.0081,-0.0127 -0.01586,-0.0255 -0.02331,-0.0386 -0.0078,-0.0127 -0.01527,-0.0255 -0.02242,-0.0386 -0.0069,-0.0137 -0.01352,-0.0276 -0.01975,-0.0416 -0.0064,-0.0132 -0.0124,-0.0266 -0.01811,-0.0401 -0.0056,-0.0142 -0.01076,-0.0286 -0.01559,-0.0431 -0.0053,-0.0142 -0.01026,-0.0286 -0.01485,-0.0431 -0.0038,-0.0143 -0.0073,-0.0287 -0.01039,-0.0431 -0.0038,-0.0147 -0.0073,-0.0296 -0.01039,-0.0445 -0.0028,-0.0148 -0.0053,-0.0296 -0.0074,-0.0445 -0.0023,-0.0148 -0.0043,-0.0297 -0.0059,-0.0446 -0.0026,-0.0257 -0.0041,-0.0514 -0.0045,-0.0772 3.08e-4,-0.0268 0.0018,-0.0535 0.0045,-0.0802 0.0016,-0.0149 0.0036,-0.0297 0.0059,-0.0445 0.0021,-0.0149 0.0046,-0.0298 0.0074,-0.0446 0.0031,-0.0144 0.0066,-0.0288 0.01039,-0.043 0.0036,-0.0145 0.0076,-0.0288 0.01188,-0.0431 0.0046,-0.0145 0.0095,-0.0289 0.01485,-0.0431 0.0048,-0.014 0.0099,-0.0279 0.01529,-0.0416 0.01026,-0.0252 0.02165,-0.05 0.03415,-0.0742 v 0 l -1.54013,-1.54015 h -4.4e-5 l -5.8120427,4.01005 -3.712e-4,8.9e-4 c -0.0082,0.0287 -0.01781,0.0569 -0.028804,0.0846 h -5.94e-5 -8.315e-4 c -0.010909,0.0273 -0.023149,0.0541 -0.036674,0.0802 h -0.00148 c -0.013506,0.0254 -0.028222,0.0502 -0.044097,0.0742 h -0.00297 c -0.0156,0.0235 -0.032298,0.0463 -0.050037,0.0683 -0.00243,0.005 -0.0049,0.01 -0.00742,0.0148 -0.016675,0.02 -0.034212,0.0394 -0.052561,0.0579 -0.00341,0.005 -0.00688,0.01 -0.010393,0.0149 -0.018061,0.0181 -0.036885,0.0355 -0.056421,0.052 -0.00391,0.005 -0.00787,0.01 -0.011878,0.0148 -0.01937,0.0157 -0.039381,0.0306 -0.059984,0.0446 -0.00504,0.005 -0.010137,0.01 -0.015293,0.0148 -0.020038,0.0132 -0.040593,0.0256 -0.061618,0.0371 -0.00651,0.005 -0.013097,0.01 -0.019747,0.0148 -0.020081,0.0102 -0.040536,0.0196 -0.061321,0.0282 -0.00769,0.005 -0.015465,0.0101 -0.023311,0.0149 -0.020165,0.008 -0.040618,0.0156 -0.061321,0.0223 -0.0094,1.5e-4 -0.018807,1.5e-4 -0.02821,0 -0.019377,0.006 -0.038937,0.0106 -0.058648,0.0149 -0.011135,2.1e-4 -0.022272,2.1e-4 -0.033407,0 -0.018397,0.006 -0.036966,0.0105 -0.055679,0.0148 -0.025625,10e-4 -0.051286,10e-4 -0.076911,0 -0.00247,2.1e-4 -0.00495,4.1e-4 -0.00742,6e-4 -0.024587,10e-4 -0.049206,10e-4 -0.073793,0 h -2.96e-5 l -5.643e-4,5.9e-4 4.4460995,5.61239 12.9785422,0.0487 v -13.5343 z m -7.374147,5.08754 -1.7527763,-1.75276 c -0.128623,0.0672 -0.271559,0.10232 -0.4166688,0.10245 -0.092521,-3e-4 -0.1844445,-0.0148 -0.272543,-0.0431 l -3.4811443,4.96015 c 0.09571,0.14649 0.1467317,0.31766 0.146843,0.49264 -1.03e-4,0.0846 -0.012099,0.16868 -0.035634,0.24989 z m -6.7522831,4.65815 -2.97e-5,5.9e-4 4.306e-4,-5.9e-4 h -4.306e-4 z"
       style="opacity:1;fill:#000000;fill-opacity:0.38823529;fill-rule:evenodd;stroke:none;stroke-width:0.01643665px;stroke-linecap:butt;stroke-linejoin:miter;stroke-opacity:1"
       sodipodi:nodetypes="cccccccccccccccccccccccccccccccccccccccccccccccccccccccccccccccccccccccccccccccccccccccccccccccccccccccccccccccccccccccccccccccccccccccccccccccccccccccccccccccccccccccccccccccccccccccccccccccc" />
  </g>
</svg>
