<?xml version="1.0" encoding="UTF-8" standalone="no"?>
<svg
   xmlns:dc="http://purl.org/dc/elements/1.1/"
   xmlns:cc="http://creativecommons.org/ns#"
   xmlns:rdf="http://www.w3.org/1999/02/22-rdf-syntax-ns#"
   xmlns:svg="http://www.w3.org/2000/svg"
   xmlns="http://www.w3.org/2000/svg"
   xmlns:xlink="http://www.w3.org/1999/xlink"
   xmlns:sodipodi="http://sodipodi.sourceforge.net/DTD/sodipodi-0.dtd"
   xmlns:inkscape="http://www.inkscape.org/namespaces/inkscape"
   id="svg1396"
   version="1.1"
   viewBox="0 0 21.166666 11.975836"
   height="45.263"
   width="80"
   sodipodi:docname="icon.svg"
   inkscape:version="0.92.2 2405546, 2018-03-11">
  <sodipodi:namedview
     pagecolor="#ffffff"
     bordercolor="#666666"
     borderopacity="1"
     objecttolerance="10"
     gridtolerance="10"
     guidetolerance="10"
     inkscape:pageopacity="0"
     inkscape:pageshadow="2"
     inkscape:window-width="1920"
     inkscape:window-height="1016"
     id="namedview2605"
     showgrid="false"
     inkscape:zoom="11.366667"
     inkscape:cx="64.859577"
     inkscape:cy="33.630282"
     inkscape:window-x="0"
     inkscape:window-y="27"
     inkscape:window-maximized="1"
     inkscape:current-layer="g9390" />
  <defs
     id="defs1390">
    <linearGradient
       y2="138.25"
       x2="1058.3334"
       y1="402.83334"
       x1="555.625"
       gradientTransform="translate(-945.25425,5251.9841)"
       gradientUnits="userSpaceOnUse"
       id="linearGradient9054"
       xlink:href="#linearGradient964" />
    <linearGradient
       id="linearGradient964">
      <stop
         id="stop960"
         offset="0"
         style="stop-color:#f2f2f2;stop-opacity:1;" />
      <stop
         id="stop962"
         offset="1"
         style="stop-color:#f2f2f2;stop-opacity:1" />
    </linearGradient>
  </defs>
  <metadata
     id="metadata1393">
    <rdf:RDF>
      <cc:Work
         rdf:about="">
        <dc:format>image/svg+xml</dc:format>
        <dc:type
           rdf:resource="http://purl.org/dc/dcmitype/StillImage" />
        <dc:title></dc:title>
      </cc:Work>
    </rdf:RDF>
  </metadata>
  <g
     transform="translate(0,-285.02416)"
     id="layer1">
    <g
       id="g9390"
       transform="matrix(-1,0,0,1,139.43216,-5331.354)">
      <g
         id="g3754"
         transform="translate(1.9108282,4.7458942)">
        <rect
           transform="scale(-1,1)"
           y="5611.6323"
           x="-137.52133"
           height="11.955834"
           width="21.166666"
           id="rect9052"
           style="color:#000000;clip-rule:nonzero;display:inline;overflow:visible;visibility:visible;opacity:1;isolation:auto;mix-blend-mode:normal;color-interpolation:sRGB;color-interpolation-filters:linearRGB;solid-color:#000000;solid-opacity:1;fill:#5599ff;fill-opacity:1;fill-rule:nonzero;stroke:none;stroke-width:0.00331417;stroke-linecap:round;stroke-linejoin:round;stroke-miterlimit:4;stroke-dasharray:none;stroke-dashoffset:0;stroke-opacity:1;color-rendering:auto;image-rendering:auto;shape-rendering:auto;text-rendering:auto;enable-background:accumulate" />
        <path
           inkscape:connector-curvature="0"
           style="color:#000000;clip-rule:nonzero;display:inline;overflow:visible;visibility:visible;opacity:1;isolation:auto;mix-blend-mode:normal;color-interpolation:sRGB;color-interpolation-filters:linearRGB;solid-color:#000000;solid-opacity:1;fill:#ffffff;fill-opacity:1;fill-rule:nonzero;stroke:none;stroke-width:0.01214631;stroke-linecap:round;stroke-linejoin:round;stroke-miterlimit:4;stroke-dasharray:none;stroke-dashoffset:0;stroke-opacity:1;color-rendering:auto;image-rendering:auto;shape-rendering:auto;text-rendering:auto;enable-background:accumulate"
           d="m 122.42722,5614.2703 a 0.60731533,0.60731533 0 0 1 0.60731,0.6073 0.60731533,0.60731533 0 0 1 -0.12268,0.365 l 2.36369,3.3092 a 0.60731533,0.60731533 0 0 1 0.18825,-0.03 0.60731533,0.60731533 0 0 1 0.28063,0.069 l 2.21781,-2.2178 a 0.60731533,0.60731533 0 0 1 -0.0692,-0.2805 0.60731533,0.60731533 0 0 1 0.60731,-0.6073 0.60731533,0.60731533 0 0 1 0.60732,0.6073 0.60731533,0.60731533 0 0 1 -0.12565,0.3692 l 2.32916,3.3187 a 0.60731533,0.60731533 0 0 1 0.22575,-0.044 0.60731533,0.60731533 0 0 1 0.60731,0.6073 0.60731533,0.60731533 0 0 1 -0.60731,0.6073 0.60731533,0.60731533 0 0 1 -0.60732,-0.6073 0.60731533,0.60731533 0 0 1 0.0989,-0.3318 l -2.34458,-3.3407 a 0.60731533,0.60731533 0 0 1 -0.18357,0.029 0.60731533,0.60731533 0 0 1 -0.28061,-0.069 l -2.21783,2.2178 a 0.60731533,0.60731533 0 0 1 0.0692,0.2805 0.60731533,0.60731533 0 0 1 -0.60732,0.6073 0.60731533,0.60731533 0 0 1 -0.60731,-0.6073 0.60731533,0.60731533 0 0 1 0.12267,-0.3651 l -2.3637,-3.3091 a 0.60731533,0.60731533 0 0 1 -0.18823,0.03 0.60731533,0.60731533 0 0 1 -0.60732,-0.6073 0.60731533,0.60731533 0 0 1 0.60732,-0.6073 z"
           id="path9056" />
        <path
           inkscape:connector-curvature="0"
           id="path9071"
           d="m 122.07269,5614.3845 6.7e-4,4e-4 a 0.60731533,0.60731533 0 0 0 -2.1e-4,0 0.60731533,0.60731533 0 0 0 -0.0462,0.037 0.60731529,0.60731529 0 0 0 -0.002,0 0.60731533,0.60731533 0 0 0 -0.0406,0.039 0.60731529,0.60731529 0 0 0 -0.004,0 0.60731533,0.60731533 0 0 0 -0.0346,0.041 0.60731529,0.60731529 0 0 0 -0.005,0.01 0.60731533,0.60731533 0 0 0 -0.0285,0.042 0.60731529,0.60731529 0 0 0 -0.006,0.01 0.60731533,0.60731533 0 0 0 -0.0228,0.042 0.60731529,0.60731529 0 0 0 -0.006,0.013 0.60731533,0.60731533 0 0 0 -0.0172,0.041 0.60731529,0.60731529 0 0 0 -0.006,0.017 0.60731533,0.60731533 0 0 0 -0.0122,0.04 0.60731529,0.60731529 0 0 0 -0.005,0.02 0.60731533,0.60731533 0 0 0 -0.008,0.037 0.60731529,0.60731529 0 0 0 -0.004,0.024 0.60731533,0.60731533 0 0 0 -0.003,0.034 0.60731529,0.60731529 0 0 0 -0.002,0.043 0.60731533,0.60731533 0 0 0 0.003,0.052 0.60731529,0.60731529 0 0 0 0.004,0.03 0.60731533,0.60731533 0 0 0 0.005,0.031 0.60731529,0.60731529 0 0 0 0.006,0.029 0.60731533,0.60731533 0 0 0 0.008,0.03 0.60731529,0.60731529 0 0 0 0.009,0.028 0.60731533,0.60731533 0 0 0 0.0109,0.03 0.60731529,0.60731529 0 0 0 0.0119,0.027 0.60731533,0.60731533 0 0 0 0.0137,0.028 0.60731529,0.60731529 0 0 0 0.0144,0.025 0.60731533,0.60731533 0 0 0 0.0165,0.027 0.60731529,0.60731529 0 0 0 0.0172,0.024 0.60731533,0.60731533 0 0 0 0.0187,0.025 0.60731529,0.60731529 0 0 0 0.0197,0.022 0.60731533,0.60731533 0 0 0 0.0211,0.023 0.60731529,0.60731529 0 0 0 0.0214,0.02 0.60731533,0.60731533 0 0 0 0.0238,0.021 0.60731529,0.60731529 0 0 0 0.023,0.017 0.60731533,0.60731533 0 0 0 0.0258,0.019 0.60731529,0.60731529 0 0 0 0.0246,0.015 0.60731533,0.60731533 0 0 0 0.0277,0.016 0.60731529,0.60731529 0 0 0 0.0258,0.012 0.60731533,0.60731533 0 0 0 0.0293,0.013 0.60731529,0.60731529 0 0 0 0.0267,0.01 0.60731533,0.60731533 0 0 0 0.0307,0.01 0.60731529,0.60731529 0 0 0 0.0277,0.01 0.60731533,0.60731533 0 0 0 0.0312,0.01 0.60731529,0.60731529 0 0 0 0.0286,0 0.60731533,0.60731533 0 0 0 0.0314,0 0.60731529,0.60731529 0 0 0 0.05,0 0.60731533,0.60731533 0 0 0 0.001,0 0.60731533,0.60731533 0 0 0 0.0363,0 0.60731529,0.60731529 0 0 0 0.0287,0 0.60731533,0.60731533 0 0 0 0.0309,0 0.60731529,0.60731529 0 0 0 0.0292,0 0.60731533,0.60731533 0 0 0 0.0298,-0.01 0.60731529,0.60731529 0 0 0 0.0333,-0.01 l 2.3637,3.3091 a 0.60731533,0.60731533 0 0 0 -2.5e-4,4e-4 0.60731533,0.60731533 0 0 0 -0.0244,0.036 0.60731529,0.60731529 0 0 0 -0.0161,0.026 0.60731533,0.60731533 0 0 0 -0.0143,0.026 0.60731529,0.60731529 0 0 0 -0.0133,0.027 0.60731533,0.60731533 0 0 0 -0.0118,0.028 0.60731529,0.60731529 0 0 0 -0.0103,0.028 0.60731533,0.60731533 0 0 0 -0.009,0.029 0.60731529,0.60731529 0 0 0 -0.008,0.03 0.60731533,0.60731533 0 0 0 -0.006,0.029 0.60731529,0.60731529 0 0 0 -0.005,0.03 0.60731533,0.60731533 0 0 0 -0.003,0.03 0.60731529,0.60731529 0 0 0 -0.002,0.044 0.60731533,0.60731533 0 0 0 0.003,0.052 0.60731529,0.60731529 0 0 0 0.004,0.03 0.60731533,0.60731533 0 0 0 0.005,0.03 0.60731529,0.60731529 0 0 0 0.007,0.029 0.60731533,0.60731533 0 0 0 0.008,0.03 0.60731529,0.60731529 0 0 0 0.01,0.029 0.60731533,0.60731533 0 0 0 0.0104,0.029 0.60731529,0.60731529 0 0 0 0.0123,0.028 0.60731533,0.60731533 0 0 0 0.0132,0.028 0.60731529,0.60731529 0 0 0 0.0149,0.026 0.60731533,0.60731533 0 0 0 0.0161,0.026 0.60731529,0.60731529 0 0 0 0.0173,0.024 0.60731533,0.60731533 0 0 0 0.0187,0.025 0.60731529,0.60731529 0 0 0 0.0194,0.022 0.60731533,0.60731533 0 0 0 0.0215,0.023 0.60731529,0.60731529 0 0 0 0.021,0.02 0.60731533,0.60731533 0 0 0 0.0241,0.021 0.60731529,0.60731529 0 0 0 0.0228,0.017 0.60731533,0.60731533 0 0 0 0.0259,0.019 0.60731529,0.60731529 0 0 0 0.0251,0.015 0.60731533,0.60731533 0 0 0 0.0269,0.016 0.60731529,0.60731529 0 0 0 0.027,0.013 0.60731533,0.60731533 0 0 0 0.028,0.012 0.60731529,0.60731529 0 0 0 0.0281,0.01 0.60731533,0.60731533 0 0 0 0.0293,0.01 0.60731529,0.60731529 0 0 0 0.0285,0.01 0.60731533,0.60731533 0 0 0 0.0306,0.01 0.60731529,0.60731529 0 0 0 0.029,0 0.60731533,0.60731533 0 0 0 0.0311,0 0.60731529,0.60731529 0 0 0 0.05,0 0.60731533,0.60731533 0 0 0 0.001,0 0.60731533,0.60731533 0 0 0 0.0521,0 0.60731529,0.60731529 0 0 0 0.029,0 0.60731533,0.60731533 0 0 0 0.031,0 0.60731529,0.60731529 0 0 0 0.0287,-0.01 0.60731533,0.60731533 0 0 0 0.0304,-0.01 0.60731529,0.60731529 0 0 0 0.0278,-0.01 0.60731533,0.60731533 0 0 0 0.0294,-0.011 0.60731529,0.60731529 0 0 0 0.0269,-0.012 0.60731533,0.60731533 0 0 0 0.0283,-0.014 0.60731529,0.60731529 0 0 0 0.0251,-0.014 0.60731533,0.60731533 0 0 0 0.027,-0.016 0.60731529,0.60731529 0 0 0 0.0239,-0.017 0.60731533,0.60731533 0 0 0 0.0248,-0.019 0.60731529,0.60731529 0 0 0 0.0222,-0.019 0.60731533,0.60731533 0 0 0 0.0228,-0.021 0.60731529,0.60731529 0 0 0 0.0203,-0.022 0.60731533,0.60731533 0 0 0 0.0203,-0.023 0.60731529,0.60731529 0 0 0 0.0182,-0.024 0.60731533,0.60731533 0 0 0 0.0178,-0.025 0.60731529,0.60731529 0 0 0 0.0157,-0.026 0.60731533,0.60731533 0 0 0 0.0151,-0.026 0.60731529,0.60731529 0 0 0 0.0133,-0.028 0.60731533,0.60731533 0 0 0 0.0122,-0.027 0.60731529,0.60731529 0 0 0 0.0105,-0.029 0.60731533,0.60731533 0 0 0 0.01,-0.029 0.60731529,0.60731529 0 0 0 0.007,-0.029 0.60731533,0.60731533 0 0 0 0.007,-0.03 0.60731529,0.60731529 0 0 0 0.005,-0.03 0.60731533,0.60731533 0 0 0 0.004,-0.03 0.60731529,0.60731529 0 0 0 0.003,-0.052 0.60731533,0.60731533 0 0 0 -0.003,-0.054 0.60731529,0.60731529 0 0 0 -0.004,-0.03 0.60731533,0.60731533 0 0 0 -0.005,-0.03 0.60731529,0.60731529 0 0 0 -0.007,-0.029 0.60731533,0.60731533 0 0 0 -0.008,-0.029 0.60731529,0.60731529 0 0 0 -0.01,-0.029 0.60731533,0.60731533 0 0 0 -0.0103,-0.028 0.60731529,0.60731529 0 0 0 -0.023,-0.05 v 0 l 1.03729,-1.0373 h 3e-5 l 3.91446,2.7008 a 0.60731533,0.60731533 0 0 0 2.5e-4,6e-4 0.60731533,0.60731533 0 0 0 0.0194,0.057 0.60731529,0.60731529 0 0 0 4e-5,0 0.60731533,0.60731533 0 0 0 5.6e-4,0 0.60731533,0.60731533 0 0 0 0.0247,0.054 0.60731529,0.60731529 0 0 0 0.001,0 0.60731533,0.60731533 0 0 0 0.0297,0.05 0.60731529,0.60731529 0 0 0 0.002,0 0.60731533,0.60731533 0 0 0 0.0337,0.046 0.60731529,0.60731529 0 0 0 0.005,0.01 0.60731533,0.60731533 0 0 0 0.0354,0.039 0.60731529,0.60731529 0 0 0 0.007,0.01 0.60731533,0.60731533 0 0 0 0.038,0.035 0.60731529,0.60731529 0 0 0 0.008,0.01 0.60731533,0.60731533 0 0 0 0.0404,0.03 0.60731529,0.60731529 0 0 0 0.0103,0.01 0.60731533,0.60731533 0 0 0 0.0415,0.025 0.60731529,0.60731529 0 0 0 0.0133,0.01 0.60731533,0.60731533 0 0 0 0.0413,0.019 0.60731529,0.60731529 0 0 0 0.0157,0.01 0.60731533,0.60731533 0 0 0 0.0413,0.015 0.60731529,0.60731529 0 0 0 0.019,0 0.60731533,0.60731533 0 0 0 0.0395,0.01 0.60731529,0.60731529 0 0 0 0.0225,0 0.60731533,0.60731533 0 0 0 0.0375,0.01 0.60731529,0.60731529 0 0 0 0.0518,0 0.60731533,0.60731533 0 0 0 0.005,4e-4 0.60731533,0.60731533 0 0 0 0.0497,0 h 2e-5 l 3.8e-4,4e-4 -2.63975,2.6398 H 116.3574 v -5.9027 z m 4.96655,3.4265 1.18051,-1.1805 a 0.60731533,0.60731533 0 0 0 0.28063,0.069 0.60731533,0.60731533 0 0 0 0.18356,-0.029 l 2.34458,3.3407 a 0.60731533,0.60731533 0 0 0 -0.0989,0.3318 0.60731533,0.60731533 0 0 0 0.024,0.1683 z m 4.54772,3.1373 2e-5,4e-4 -2.9e-4,-4e-4 a 0.60731533,0.60731533 0 0 0 2.9e-4,0 z"
           style="opacity:1;fill:#000000;fill-opacity:0.38823529;fill-rule:evenodd;stroke:none;stroke-width:0.01107022px;stroke-linecap:butt;stroke-linejoin:miter;stroke-opacity:1" />
      </g>
    </g>
  </g>
</svg>
